<?xml version="1.0" encoding="UTF-8" standalone="no"?>
<svg
   version="1.1"
   width="221"
   height="226"
   id="svg18"
   sodipodi:docname="logo.svg"
   inkscape:version="1.2.2 (732a01da63, 2022-12-09)"
   inkscape:export-filename="logo.png"
   inkscape:export-xdpi="96"
   inkscape:export-ydpi="96"
   xmlns:inkscape="http://www.inkscape.org/namespaces/inkscape"
   xmlns:sodipodi="http://sodipodi.sourceforge.net/DTD/sodipodi-0.dtd"
   xmlns="http://www.w3.org/2000/svg"
   xmlns:svg="http://www.w3.org/2000/svg">
  <defs
     id="defs22" />
  <sodipodi:namedview
     id="namedview20"
     pagecolor="#ffffff"
     bordercolor="#111111"
     borderopacity="1"
     inkscape:showpageshadow="0"
     inkscape:pageopacity="0"
     inkscape:pagecheckerboard="1"
     inkscape:deskcolor="#d1d1d1"
     showgrid="false"
     inkscape:zoom="4.5442478"
     inkscape:cx="159.76241"
     inkscape:cy="76.140214"
     inkscape:window-width="3840"
     inkscape:window-height="2054"
     inkscape:window-x="-11"
     inkscape:window-y="-11"
     inkscape:window-maximized="1"
     inkscape:current-layer="layer1" />
  <g
     inkscape:groupmode="layer"
     id="layer1"
     inkscape:label="Layer 1">
    <rect
       style="fill:#9fc4e6;fill-opacity:1;stroke-width:2.69283"
       id="rect421"
       width="220"
       height="226"
       x="0.66017741"
       y="0.4401167"
       ry="25.882603" />
  </g>
  <g
     inkscape:groupmode="layer"
     id="layer2"
     inkscape:label="Layer 2">
    <g
       id="g184"
       transform="translate(0.44011338,-0.4401177)"
       inkscape:transform-center-x="-313.36319"
       inkscape:transform-center-y="9.0223953">
      <path
         d="M 0,0 C 0.65097656,0.50660156 1.3019531,1.0132031 1.9726562,1.5351562 2.6339453,2.0314453 3.2952344,2.5277344 3.9765625,3.0390625 9.9917358,8.2505383 12.422932,15.215896 13.410156,22.972656 12.167165,33.09416 9.9955417,41.463253 1.96875,48.222656 c -2.83966916,1.86718 -4.6682476,1.797811 -7.9960937,1.3125 -2.4375001,-1.5625 -2.4375001,-1.5625 -4.0000003,-4 -0.09512,-4.756171 1.2923238,-7.680779 3.5625003,-11.8125 2.6508606,-5.069867 3.702612,-9.524617 2.4375,-15.1875 -2.6646984,-3.62695 -4.6467795,-5.20425 -9.0000003,-6 -9.762793,-0.873211 -17.116934,0.713321 -25.25,6.1875 -9.690648,9.91089 -13.425267,22.180999 -13.292968,35.900391 0.41999,8.986046 3.555413,18.002244 9.878906,24.552734 2.965277,2.422339 6.114228,3.96879 9.664062,5.359375 1.051875,0.4125 2.10375,0.825 3.1875,1.25 10.759157,2.116556 19.5243147,0.990399 28.96093775,-4.5 C 6.612207,76.908007 10.39038,70.640313 14.496094,64.113281 c 3.619716,-5.400846 3.619716,-5.400846 8.101562,-6.328125 3.375,0.75 3.375,0.75 5.875,2.3125 1.5,2.4375 1.5,2.4375 1.5625,5.625 -3.456629,12.403198 -12.898264,24.030748 -23.957031,30.507813 -8.5171702,4.435361 -15.9518151,6.685521 -25.542969,6.554691 -0.749348,-0.01 -1.498696,-0.0193 -2.270752,-0.0293 -13.083674,-0.28458 -24.107004,-5.017655 -33.791748,-14.033204 -4.883804,-5.315347 -9.5,-11.840476 -9.5,-19.1875 -0.66,0 -1.32,0 -2,0 -0.256523,0.876563 -0.513047,1.753125 -0.777343,2.65625 -3.310619,9.05396 -9.725586,15.952006 -18.222657,20.34375 -2.855036,1.249078 -4.996475,2.05914 -8.121093,1.875 -2.708625,-0.07308 -4.384544,0.01979 -6.878903,1.125 -2.15755,3.095614 -3.70215,6.286914 -5.32422,9.691404 -4.21828,8.3284 -11.0419,12.43063 -19.67578,15.3086 -7.11301,0.74873 -12.09726,-0.96521 -18,-5 -6.49203,-5.88611 -9.88805,-11.07028 -10.4375,-19.875004 0.13125,-5.447125 1.77773,-9.112257 5.4375,-13.125 8.99708,-6.703711 20.17515,-6.586232 31,-6 1.32,0.33 2.64,0.66 4,1 -0.33,-20.79 -0.66,-41.58 -1,-63 -13.57233,2.119904 -13.57233,2.119904 -27.0625,4.6875 -12.2793,2.495684 -12.2793,2.495684 -16.9375,1.3125 -2.04217,-2.203147 -2.90855,-3.542732 -3.5,-6.5 0.5,-2.5 0.5,-2.5 2.3125,-4.5624997 8.21283,-4.9921163 17.29017,-6.7586404 26.6875,-8.1250001 1.05058,-0.1643554 2.10117,-0.3287109 3.18359,-0.49804682 9.36125,-1.42906657 18.71779,-2.44428048 28.19141,-2.56445308 1.23492,-0.025781 2.46984,-0.051562 3.742184,-0.078125 4.62814,0.4489189 7.144515,2.08982763 10.382812,5.328125 0.125,3.1249999 0.125,3.1249999 0,6 -0.66,0 -1.32,0 -2,0 0,0.6599997 0,1.3199997 0,1.9999997 -3.166094,1.876204 -5.358324,2.096628 -9,2 0.03029,0.578145 0.06059,1.156289 0.0918,1.751953 1.074966,21.416624 1.01258,42.810766 0.908203,64.248047 6.623491,-1.774998 10.229915,-3.374049 14.132813,-9.164062 1.003583,-1.743481 2.007071,-3.487028 3.003906,-5.234375 1.770237,-3.026758 2.885501,-4.616376 5.863281,-6.601563 2.625,-0.1875 2.625,-0.1875 5,0 0.33,0.33 0.66,0.66 1,1 0.02578,-1.292929 0.05156,-2.585859 0.07813,-3.917969 0.483367,-16.775562 3.192688,-32.239269 15.171875,-44.894531 4.512914,-4.2261396 9.231315,-7.4197447 14.75,-10.18749975 0.78375,-0.41378906 1.5675,-0.82757813 2.375,-1.25390625 C -26.184655,-5.4128542 -9.9437246,-6.2959385 0,0 Z"
         fill="#fcfdfe"
         transform="translate(175.02734,56.464844)"
         id="path4" />
      <path
         d="m 0,0 c 0.82741699,0.01047363 1.654834,0.02094727 2.5073242,0.03173828 0.8958985,0.0064453 1.7917969,0.01289063 2.7148438,0.01953125 1.4057226,0.02513672 1.4057226,0.02513672 2.8398437,0.05078125 0.9448828,0.009023 1.8897656,0.0180469 2.8632813,0.0273438 2.337492,0.023611 4.67448,0.0565411 7.011719,0.0976563 -0.834878,6.05286192 -2.462674,9.06361952 -7.375,12.81250012 -3.2409481,1.466143 -5.1055967,1.774067 -8.6250003,1.1875 -2.81249998,-2.4375 -2.81249998,-2.4375 -5,-5.0000001 -0.33,-0.33 -0.66,-0.66 -1,-1 -0.1875,-2.9375 -0.1875,-2.9375 0,-6 2,-2.00000002 2,-2.00000002 4.0629883,-2.2270509 z"
         fill="#9fc4e6"
         transform="translate(40.062988,147.77295)"
         id="path16"
         style="display:inline" />
    </g>
  </g>
</svg>
